<svg xmlns="http://www.w3.org/2000/svg" viewBox="0 0 753.46 325.13"><defs><style>.cls-1{fill:#019d60;}.cls-2{fill:#94958d;}.cls-3{fill:#12935a;}.cls-4{fill:#949689;}.cls-5{fill:#019d5c;}.cls-6{fill:#94968b;}.cls-7{fill:#94968a;}</style></defs><title>Recurso 1</title><g id="Capa_2" data-name="Capa 2"><g id="Capa_1-2" data-name="Capa 1"><path class="cls-1" d="M5.55,247.43l-2.5,28.75s11.25,7.5,20.5,3.75c0,0,7-3.75-10.25-4.5,0,0-6.75,3-5.75-9.25,0,0,2.75-15.75,2.5-18.75Z"/><path class="cls-1" d="M58.3,272.71s18,8.24,25,3.23c0,0,3-6.26-9.75-9.26,0,0-22.95-9.25-4.72-15.25,0,0,23.33-7.75,14.78,1l-13.56,2.5s-9.25,1.8,9,9.27c0,0,22,10.33,2.5,16.78,0,0-22.5-.53-26.5-5Z"/><path class="cls-1" d="M111.34,273.22s-1.25-14.84-7.71-15.09c0,0-8.12.71-9.71,3.63s1,5.29,4.38,2.25a4.44,4.44,0,0,1,6.25-.21s2,.75.25,2.71c0,0-7.58-1.71-11.21,2.37,0,0-3.75,1.34-2.29,8.3S104.8,279,104.8,279,111.8,277.38,111.34,273.22Zm-5.42,1.37s-7.66,3.46-9.58,1.63-1.12-3.13,2.38-5.5c0,0-1.55-.17,3.33-.63S105.92,274.59,105.92,274.59Z"/><path class="cls-1" d="M47,273.81S45.77,259,39.31,258.72c0,0-8.12.71-9.71,3.63s1,5.29,4.38,2.25a4.44,4.44,0,0,1,6.25-.21s2,.75.25,2.71c0,0-7.58-1.71-11.21,2.37,0,0-3.75,1.34-2.29,8.29s13.5,1.8,13.5,1.8S47.48,278,47,273.81Zm-5.42,1.37s-7.66,3.46-9.58,1.63-1.12-3.13,2.38-5.5c0,0-1.55-.17,3.33-.63S41.6,275.18,41.6,275.18Z"/><path class="cls-1" d="M114.8,252.59s-2.33,23.27-.67,28.39l4.34-1.22s-.34-4.67,0-25.5Z"/><path class="cls-1" d="M121.63,260.93S120,283.53,130,281s8-5.89,8-5.89,2.66,7.34,8,4c0,0-.17-2.7-3.34-5.68,0,0,1.84-10.82.67-14.32,0,0-5.17-1.66-4.83,3.84s-6.08,18.83-11.5,9.5l-.84-12.17Z"/><path class="cls-1" d="M163.13,253.76s.5-2.67-4.5-2.33v9S146.3,258.76,146,271.76s14,7.33,14,7.33l1.3,2.09,3.5-.37ZM160,273.41s-8.2,8-10-1,10-7.17,10-7.17Z"/><path class="cls-2" d="M421,105.13s20-94,108-105c0,0,59-6,73,65,0,0-18,4-27,16,0,0-25-65-88-36,0,0-40,28-43,60Z"/><ellipse class="cls-3" cx="605.5" cy="106.13" rx="28.5" ry="30"/><path class="cls-4" d="M638,84.13s62-39,100,18-6,137-6,137-12-21-21-19c0,0,26-47-3-95,0,0-20-32-66-32Z"/><circle class="cls-3" cx="703.5" cy="251.63" r="23.5"/><ellipse class="cls-3" cx="510.5" cy="307.13" rx="19.5" ry="18"/><circle class="cls-3" cx="428.5" cy="130.63" r="15.5"/><path class="cls-2" d="M672,263.13s12,14,14,18-59,36-148,36v-12S637,301.13,672,263.13Z"/><path class="cls-1" d="M4,207.13l-4,17s52,21,61-19c0,0,7-19-30-33,0,0-19-7-3-17,0,0,15-2,24,2l6-16s-34-13-52,7c0,0-12,21,2,33,0,0,2,3,32,17,0,0,8,20-24,14Z"/><polyline class="cls-1" points="160 133.13 160 134.63 160 230.13 140 230.13 140 133.13"/><path class="cls-1" d="M103,161.13s-31,2-30,6l4,13s33-12,29,5c0,0-34,0-37,21,0,0-3,21,16,24,0,0,16,1,25-9v9h18v-49S120,161.13,103,161.13Zm5,48.8a2,2,0,0,1-.1.8,7.19,7.19,0,0,1-2.8,4.2,6.53,6.53,0,0,1-1.5,1,13.52,13.52,0,0,1-5.6,1.3c-4.6,0-8.4-2.3-9.6-5.4a1.72,1.72,0,0,1-.4-.6c-3-16,19-13,19-13a35.05,35.05,0,0,1,.8,9.7,7.72,7.72,0,0,1,.2,1.5v.5Z"/><path class="cls-5" d="M293,133.13v35c-4-8-21-7-21-7-21,4-26,26-26,26-1,29,7,33,7,33,20,24,42,0,42,0v9h18v-96Zm-13,82c-7.7,0-14-8.5-14-19s6.3-19,14-19,14,8.5,14,19S287.7,215.13,280,215.13Z"/><path class="cls-6" d="M366,140.13H330v90s74,8,79-39C409,191.13,415,138.13,366,140.13Zm-16,74v-61c41-6,39,29,39,29C393,219.13,350,214.13,350,214.13Z"/><rect class="cls-6" x="420" y="163.13" width="20" height="66"/><path class="cls-4" d="M498.5,163.63v8.1c-5.2-6-12.2-9.6-20-9.6-15.7,0-28.5,15-28.5,33.5s12.8,33.5,28.5,33.5a26.37,26.37,0,0,0,17.8-7.3c0,.1.1.2.1.3h-.5s4.6,29.5-36.4,15.5l-4,15s50,19,60-21v-68Zm-14.5,51c-7.5,0-13.5-8.3-13.5-18.5s6-18.5,13.5-18.5,13.5,8.3,13.5,18.5S491.5,214.63,484,214.63Z"/><path class="cls-7" d="M529.5,163.63v65h21l-1-42s4-10,11-8c0,0,8-2,11,8v42h20v-47s-4-18-20-20-24,11-24,11v-9Z"/><path class="cls-4" d="M605,167.13l4,14s19-13,31,0v5s-32-2-38,15,7,26,7,26,20,10,33-5v7l17-1v-46S654,150.13,605,167.13Zm35,43c-16,15-20,1-20,1-3-14,20-14,20-14A47.17,47.17,0,0,1,640,210.13Z"/><path class="cls-1" d="M235.4,227.73l1.6-65-21-.5v42s-4.3,9.9-11.2,7.7c0,0-8,1.8-10.8-8.3l1-42-20-.5-1.2,47s3.5,18.1,19.5,20.5,24.3-10.4,24.3-10.4l-.2,9Z"/><path class="cls-1" d="M197.63,273.76s-12.16,6.5-18.33-1.17c0,0,14.17-2.94,17.67-6.3s-6.84-12.86-16.17-5.7S176,276.7,176,276.7s4.5,8.73,23.66,1.56C199.63,278.26,201.8,274.93,197.63,273.76Zm-7.16-9.33-10.17,4.16C183.65,259.25,190.47,264.43,190.47,264.43Z"/><path class="cls-1" d="M201.3,276.7l1.33,4.28s21,2.11,18-7.89c0,0,.17-3.94-12.5-6.8,0,0-2.66-2.2,8.84-4.53,0,0,.83-3.64-2.34-2.91s-22.8,5.48-9.23,11.11,13.73,5.68,2.23,6.74Z"/><path class="cls-1" d="M231.13,258.85s.5,23.24,1.5,26.08,4.37-1.5,4.37-1.5l-1.2-8.5s10.67,4.71,12.17-8.15S231.13,258.85,231.13,258.85Zm4.34,12-.67-7.9s8.5-2.24,8.17,3.78S235.47,270.9,235.47,270.9Z"/><path class="cls-1" d="M271,273.7s-1.25-14.83-7.71-15.08c0,0-8.12.71-9.71,3.63s1,5.29,4.38,2.25a4.43,4.43,0,0,1,6.25-.21s2,.75.25,2.71c0,0-7.59-1.71-11.21,2.37,0,0-3.75,1.33-2.29,8.29s13.5,1.79,13.5,1.79S271.47,277.87,271,273.7Zm-5.42,1.38s-7.66,3.46-9.58,1.62-1.13-3.12,2.37-5.5c0,0-1.54-.16,3.34-.62S265.59,275.08,265.59,275.08Z"/><path class="cls-1" d="M272.47,261.09l2.16,20.21s2.67,2.61,4.17-.22L278,270s5.5-9.06,16-7l1.5-4.24A18.07,18.07,0,0,0,277.13,263l-.66-2.74Z"/><path class="cls-1" d="M315.85,273.28s-1.25-14.84-7.71-15.09c0,0-8.13.71-9.71,3.63s1,5.29,4.37,2.25a4.44,4.44,0,0,1,6.25-.21s2,.75.25,2.71c0,0-7.58-1.71-11.2,2.37,0,0-3.75,1.34-2.3,8.29s13.5,1.8,13.5,1.8S316.3,277.44,315.85,273.28Zm-5.42,1.37s-7.67,3.46-9.58,1.63-1.13-3.13,2.37-5.5c0,0-1.54-.17,3.33-.63S310.43,274.65,310.43,274.65Z"/><path class="cls-1" d="M339,260.09l9.66-.83s3.5,6.67-8.66,6c0,0-4.67,17.83,6,9.83,0,0,5.5,4.06-1,5.78s-9.67-4.06-9.67-4.06L334,265.76s-7.67.67-9.5,1.67-2.17-4.17-2.17-4.17,11.67-2.33,12.17-2,1.23-8.33,1.23-8.33h4.6Z"/><path class="cls-1" d="M376,263.76s-6.43-9.83-20.63-4.5c0,0-10.63,10.83,0,19.5,0,0,10.16,6.33,18.39,0S376,263.76,376,263.76Zm-12.34,11.33c-12.5,1-7.16-10.5-7.16-10.5s11.33-8,16.16,2.47S364.9,275,363.63,275.09Z"/><path class="cls-1" d="M427.36,264.26s-6.43-9.84-20.63-4.5c0,0-10.63,10.83,0,19.5,0,0,10.16,6.33,18.39,0S427.36,264.26,427.36,264.26ZM415,275.59c-12.5,1-7.16-10.5-7.16-10.5s11.33-8,16.16,2.47S416.29,275.49,415,275.59Z"/><path class="cls-1" d="M397.41,253.77s.5-2.66-4.5-2.33v9s-12.33-1.67-12.66,11.33,14,7.34,14,7.34l1.3,2.08,3.5-.36Zm-3.13,19.65s-8.2,8-10-1,10-7.17,10-7.17Z"/><path class="cls-1" d="M431.3,276.36l1.33,4.28s21,2.12,18-7.88c0,0,.17-3.95-12.5-6.81,0,0-2.66-2.19,8.84-4.53,0,0,.83-3.64-2.34-2.9s-22.8,5.47-9.23,11.1,13.73,5.68,2.23,6.74Z"/><path class="cls-2" d="M680,203.77a13.3,13.3,0,1,0,13.38,13.29A13.33,13.33,0,0,0,680,203.77Zm0,24.62a11.33,11.33,0,1,1,11.4-11.33A11.36,11.36,0,0,1,680,228.39Z"/><path class="cls-2" d="M683.4,217s6.11-2.62,0-7.35h-8.65v14.19H678V218.3s4.75-.5,5.39,5.54h4.27A18.82,18.82,0,0,0,683.4,217ZM682,213.41c-.42,3.12-3.68,1.71-3.68,1.71V211.7C682.32,211.7,682,213.41,682,213.41Z"/></g></g></svg>